<?xml version="1.0" encoding="utf-8"?>
<!-- Generator: Adobe Illustrator 24.2.0, SVG Export Plug-In . SVG Version: 6.00 Build 0)  -->
<svg version="1.1" id="Camada_1" xmlns="http://www.w3.org/2000/svg" xmlns:xlink="http://www.w3.org/1999/xlink" x="0px" y="0px"
	 viewBox="0 0 114 66" style="enable-background:new 0 0 114 66;" xml:space="preserve">
<style type="text/css">
	.st0{fill:#FFFFFF;}
	.st1{fill:none;stroke:#FF3636;}
	.st2{fill:#FF3636;}
	.st3{enable-background:new    ;}
	.st4{fill:none;stroke:#FFFFFF;stroke-width:2;}
</style>
<g id="Cadeado_de_edição4" transform="translate(-231 -546)">
	<g id="Retângulo_566" transform="translate(231 564)">
		<path class="st0" d="M5,0h57c2.8,0,5,2.2,5,5v15c0,2.8-2.2,5-5,5H5c-2.8,0-5-2.2-5-5V5C0,2.2,2.2,0,5,0z"/>
		<path class="st1" d="M5,0.5h57c2.5,0,4.5,2,4.5,4.5v15c0,2.5-2,4.5-4.5,4.5H5c-2.5,0-4.5-2-4.5-4.5V5C0.5,2.5,2.5,0.5,5,0.5z"/>
	</g>
	<g id="Grupo_29" transform="translate(-9 -72)">
		<g transform="matrix(1, 0, 0, 1, 240, 618)">
			<circle id="Elipse_2-2" class="st2" cx="81" cy="30" r="24"/>
		</g>
	</g>
	<g class="st3">
		<path class="st2" d="M240,581v-8.5h5.5v1h-4.3v2.7h4.1v1h-4.1v2.8h4.3v1H240z"/>
		<path class="st2" d="M247.1,572.5h3c1.4,0,2.5,0.4,3.2,1.1c0.8,0.7,1.1,1.8,1.1,3.1c0,1.4-0.4,2.4-1.1,3.2
			c-0.8,0.7-1.8,1.1-3.2,1.1h-3V572.5z M250,580c2.1,0,3.2-1.1,3.2-3.3c0-2.2-1.1-3.2-3.2-3.2h-1.7v6.5H250z"/>
		<path class="st2" d="M256.1,581v-8.5h1.2v8.5H256.1z"/>
		<path class="st2" d="M261.4,581v-7.5h-2.9v-1h7v1h-2.9v7.5H261.4z"/>
		<path class="st2" d="M272.2,581l-0.9-2.1h-4.3L266,581h-1.3l3.8-8.5h1l3.8,8.5H272.2z M267.4,577.9h3.5l-1.7-4.1L267.4,577.9z"/>
		<path class="st2" d="M281.4,581h-1.3l-1.1-2.8c-0.1-0.3-0.3-0.5-0.5-0.6c-0.2-0.1-0.5-0.2-0.9-0.2h-1.9v3.6h-1.2v-8.5h3.5
			c0.9,0,1.7,0.2,2.2,0.6s0.8,1,0.8,1.8c0,0.6-0.1,1-0.4,1.4c-0.3,0.4-0.7,0.7-1.3,0.8c0.5,0.1,0.9,0.4,1.1,1.1L281.4,581z
			 M277.9,576.4c0.6,0,1.1-0.1,1.4-0.4c0.3-0.2,0.5-0.6,0.5-1.1c0-0.5-0.1-0.8-0.4-1.1c-0.3-0.2-0.8-0.4-1.4-0.4h-2.1v2.9H277.9z"/>
	</g>
	<g id="Grupo_1430" transform="translate(-9.574 -12.765)">
		<g id="Retângulo_564" transform="translate(315.574 575.765)">
			<path class="st2" d="M6,0L6,0c3.3,0,6,2.7,6,6v7c0,3.3-2.7,6-6,6l0,0c-3.3,0-6-2.7-6-6V6C0,2.7,2.7,0,6,0z"/>
			<path class="st4" d="M6,1L6,1c2.8,0,5,2.2,5,5v7c0,2.8-2.2,5-5,5l0,0c-2.8,0-5-2.2-5-5V6C1,3.2,3.2,1,6,1z"/>
		</g>
		<g id="Retângulo_563" transform="translate(311.574 584.765)">
			<path class="st2" d="M5,0h10c2.8,0,5,2.2,5,5v7c0,2.8-2.2,5-5,5H5c-2.8,0-5-2.2-5-5V5C0,2.2,2.2,0,5,0z"/>
			<path class="st4" d="M5,1h10c2.2,0,4,1.8,4,4v7c0,2.2-1.8,4-4,4H5c-2.2,0-4-1.8-4-4V5C1,2.8,2.8,1,5,1z"/>
		</g>
		<rect id="Retângulo_565" x="320.6" y="590.8" class="st0" width="2" height="6"/>
		<circle id="Elipse_54" class="st0" cx="321.6" cy="591.8" r="2"/>
	</g>
</g>
</svg>
