<svg xmlns="http://www.w3.org/2000/svg" viewBox="0 0 24.946 21.395">
  <g id="Grupo_1603" data-name="Grupo 1603" transform="translate(-1125.517 -315.222)">
    <path id="Caminho_372" data-name="Caminho 372" d="M1234.12,587.362a2.027,2.027,0,1,0,2.028,2.027A2.03,2.03,0,0,0,1234.12,587.362Z" transform="translate(-99.785 -254.8)"/>
    <path id="Caminho_373" data-name="Caminho 373" d="M1378.1,587.362a2.027,2.027,0,1,0,2.027,2.027A2.03,2.03,0,0,0,1378.1,587.362Z" transform="translate(-234.593 -254.8)"/>
    <path id="Caminho_374" data-name="Caminho 374" d="M1150.258,319.882a.965.965,0,0,0-.765-.374h-19.579l-.522-2.794a1.809,1.809,0,0,0-1.783-1.493h-2.091v1.213h0v.522h1.648a.472.472,0,0,1,.464.392l.509,2.722,1.669,9.792a1.93,1.93,0,0,0,1.908,1.61h14.508a1.933,1.933,0,0,0,1.877-1.464l2.334-9.293A.964.964,0,0,0,1150.258,319.882Z"/>
  </g>
</svg>
