<svg xmlns="http://www.w3.org/2000/svg" width="9.269" height="9.261" viewBox="0 0 9.269 9.261">
  <g id="Grupo_42" data-name="Grupo 42" transform="translate(-1111.246 -647.072)">
    <path id="Caminho_22" data-name="Caminho 22" d="M1120.226,650.077a4.624,4.624,0,0,0-7.962-1.264,4.395,4.395,0,0,0-.947,2.165c-.012.089-.029.181-.045.269-.008.043-.016.086-.023.129l0,.01v.641c0,.03.008.06.011.09.008.066.016.135.027.2a4.865,4.865,0,0,0,.632,1.782,4.524,4.524,0,0,0,1.637,1.607,4.6,4.6,0,0,0,2.308.624,4.827,4.827,0,0,0,.548-.032,4.622,4.622,0,0,0,1.464-.412,4.538,4.538,0,0,0,1.962-1.763,4.425,4.425,0,0,0,.659-1.956A4.661,4.661,0,0,0,1120.226,650.077Zm-.47,1.6a3.9,3.9,0,0,1-1.145,2.779,3.824,3.824,0,0,1-2.716,1.113h-.015a3.87,3.87,0,1,1,.012-7.74h.058A3.857,3.857,0,0,1,1119.756,651.68Z"/>
    <path id="Caminho_23" data-name="Caminho 23" d="M1238.424,697.426h-1.984v-.751c0-.54,0-1.01,0-1.635a.393.393,0,0,0-.1-.289.414.414,0,0,0-.308-.1c-.25,0-.366.124-.366.387,0,.3,0,.568,0,.829,0,.648,0,1.208-.006,1.928a.408.408,0,0,0,.414.446.9.9,0,0,0,.118.007l.088,0,.08,0h2.024a.436.436,0,0,0,.47-.289.391.391,0,0,0-.054-.351A.455.455,0,0,0,1238.424,697.426Z" transform="translate(-120.143 -45.942)"/>
  </g>
</svg>
