<svg xmlns="http://www.w3.org/2000/svg" width="13.449" height="12.794" viewBox="0 0 13.449 12.794">
  <defs>
    <style>
      .cls-1 {
        fill: none;
      }

      .cls-2, .cls-3 {
        stroke: none;
      }

      .cls-3 {
        fill: #9c9c9c;
      }
    </style>
  </defs>
  <g id="Caminho_135" data-name="Caminho 135" class="cls-1" transform="translate(-117.546 -7.012)">
    <path class="cls-2" d="M124.269,7.012l2.469,3.673,4.257,1.212-2.731,3.483.161,4.424-4.157-1.521-4.164,1.522.162-4.424L117.546,11.9l4.256-1.212Z"/>
    <path class="cls-3" d="M 124.2693710327148 8.804939270019531 L 122.6330108642578 11.24223709106445 L 122.4288864135742 11.54625701904297 L 122.0767211914063 11.64657688140869 L 119.2483062744141 12.45222949981689 L 121.055290222168 14.76663684844971 L 121.2797470092773 15.05411624908447 L 121.2664108276367 15.41860675811768 L 121.158935546875 18.35575675964355 L 123.9254684448242 17.34429550170898 L 124.2689743041992 17.21871566772461 L 124.6124496459961 17.34437561035156 L 127.372184753418 18.35409355163574 L 127.2650146484375 15.4171667098999 L 127.2516784667969 15.05163669586182 L 127.4773254394531 14.76376628875732 L 129.2899475097656 12.45140361785889 L 126.4641342163086 11.64657688140869 L 126.1122665405273 11.54635715484619 L 125.9081497192383 11.24272632598877 L 124.2693710327148 8.804939270019531 M 124.2688446044922 7.011707305908203 L 126.7380599975586 10.6848258972168 L 130.9949645996094 11.89724636077881 L 128.2643432617188 15.38069629669189 L 128.4257659912109 19.80440711975098 L 124.2688446044922 18.28349685668945 L 120.1052093505859 19.80574607849121 L 120.2670745849609 15.38203716278076 L 117.5463104248047 11.89724636077881 L 121.8027648925781 10.6848258972168 L 124.2688446044922 7.011707305908203 Z"/>
  </g>
</svg>
