<svg id="Ícone_fluxo_de_pedidos" data-name="Ícone fluxo de pedidos" xmlns="http://www.w3.org/2000/svg" viewBox="0 0 20.554 20.554">
  <g id="Caminho_199_1_">
    <path id="Caminho_199_1_2" data-name="Caminho_199_1_" d="M3.31,323.686v18.241a1.154,1.154,0,0,0,1.156,1.156H22.708a1.154,1.154,0,0,0,1.156-1.156V323.686a1.154,1.154,0,0,0-1.156-1.156H4.466A1.158,1.158,0,0,0,3.31,323.686Zm16.053,12.486H7.811a1.154,1.154,0,0,1-1.156-1.156h0a1.154,1.154,0,0,1,1.156-1.156H19.363a1.154,1.154,0,0,1,1.156,1.156h0A1.154,1.154,0,0,1,19.363,336.172Zm0-4.078H7.811a1.154,1.154,0,0,1-1.156-1.156h0a1.154,1.154,0,0,1,1.156-1.156H19.363a1.154,1.154,0,0,1,1.156,1.156h0A1.154,1.154,0,0,1,19.363,332.095Zm0-4.073H7.811a1.154,1.154,0,0,1-1.156-1.156h0a1.154,1.154,0,0,1,1.156-1.156H19.363a1.154,1.154,0,0,1,1.156,1.156h0A1.158,1.158,0,0,1,19.363,328.022Z" transform="translate(-3.31 -322.53)"/>
  </g>
</svg>
