<svg id="Grupo_5" data-name="Grupo 5" xmlns="http://www.w3.org/2000/svg" width="96.785" height="34.095" viewBox="0 0 96.785 34.095">
  <defs>
    <style>
      .simple-logo {
        fill: #fff;
      }
    </style>
  </defs>
  <g id="Grupo_4" data-name="Grupo 4">
    <path id="Caminho_9" data-name="Caminho 9" class="simple-logo" d="M473.283,445.968a1.3,1.3,0,0,1-.431.661,3,3,0,0,0-.323.359,14.455,14.455,0,0,1-2.084,1.48,9.343,9.343,0,0,1-2.07.927,4.9,4.9,0,0,1-1.006.2,4.3,4.3,0,0,1-1.25-.036,8.53,8.53,0,0,1-2.465-.762,6.2,6.2,0,0,1-1.631-1.171,4.741,4.741,0,0,1-.985-1.423,5.042,5.042,0,0,1-.409-1.409c-.007-.036-.007-.072-.015-.108a13.233,13.233,0,0,1-1.638,1.164,11.468,11.468,0,0,1-1.912.927,10.429,10.429,0,0,1-2.055.539,2.819,2.819,0,0,1-.424.043,5.907,5.907,0,0,1-1.6-.043,4.943,4.943,0,0,1-1.739-.69,6.336,6.336,0,0,1-1.531-1.337,5.773,5.773,0,0,1-.977-1.746,14.453,14.453,0,0,1-2.874,2,6.675,6.675,0,0,1-3.579.826,7.132,7.132,0,0,1-4.671-1.739,4.673,4.673,0,0,1-1.639-3.766,11.259,11.259,0,0,1,.546-3.054c.324-.97.668-1.9,1.035-2.824s.711-1.782,1.021-2.616.906-2.486.244-3.033a1.143,1.143,0,0,0-.711-.266,4.167,4.167,0,0,0-2.6.992,11.362,11.362,0,0,0-2.723,3.083,20.448,20.448,0,0,0-2.242,4.966,30.69,30.69,0,0,0-1.1,7.28c-.021.453-.129.726-.323.841a1.609,1.609,0,0,1-.862.144,6.9,6.9,0,0,1-3.421-.956,2.378,2.378,0,0,1-1.294-1.933,15.047,15.047,0,0,1-2.249,1.775,6.707,6.707,0,0,1-3.5,1.1,6.945,6.945,0,0,1-4.8-1.408,5.028,5.028,0,0,1-1.6-2.192,15.407,15.407,0,0,1-2,2,6.723,6.723,0,0,1-3.341,1.523,6.955,6.955,0,0,1-4.937-.826,5.047,5.047,0,0,1-1.056-.87v.014s-2.357-2.142-1.682-6.647a24.24,24.24,0,0,1,.489-2.745c.2-.834.381-1.61.546-2.328a5.293,5.293,0,0,0,.115-1.955.968.968,0,0,0-.374-.7.943.943,0,0,0-.7-.129c-.582.094-1.279.747-2.1,1.976a15.958,15.958,0,0,0-2.005,5.2,31.445,31.445,0,0,0-.855,5.224,14.1,14.1,0,0,0,.129,3.571q.1.668-.151.884a1.618,1.618,0,0,1-.812.316,6.933,6.933,0,0,1-3.543-.259,2.352,2.352,0,0,1-1.7-1.8,9.9,9.9,0,0,1-.072-2.9c.122-1.251.28-2.487.5-3.708s.388-2.343.539-3.377a8.74,8.74,0,0,0,.086-2.465c-.115-.719-.474-1.028-1.092-.927a3.512,3.512,0,0,0-1.955,1.351,10.242,10.242,0,0,0-1.775,3.334,21.142,21.142,0,0,0-1,5.124,27.514,27.514,0,0,0,.309,6.661c.072.446.022.74-.144.891a1.684,1.684,0,0,1-.819.309,6.757,6.757,0,0,1-3.535-.259,2.331,2.331,0,0,1-1.7-1.8,23.521,23.521,0,0,1-.244-4.714q.107-2.479.431-4.771c.208-1.531.453-2.947.719-4.247s.5-2.321.69-3.083a1.43,1.43,0,0,1,1.229-1.186,3.562,3.562,0,0,1,1.552.23,6.5,6.5,0,0,1,2.451,1.962,18.453,18.453,0,0,1,1.984-1.983,16.832,16.832,0,0,1,2.1-1.473,6.842,6.842,0,0,1,2.494-.92,3.446,3.446,0,0,1,2.824.661,7.727,7.727,0,0,1,1.947,2.458,26.866,26.866,0,0,1,2.156-2.271,16.016,16.016,0,0,1,2.221-1.674,7.03,7.03,0,0,1,2.688-1.028,3.172,3.172,0,0,1,1.4.122,5.047,5.047,0,0,1,1.387.668,4.337,4.337,0,0,1,1.078,1.064,2.858,2.858,0,0,1,.539,1.272,6.94,6.94,0,0,1-.115,2.422c-.187.935-.4,1.94-.654,3s-.453,2.156-.611,3.255a10.792,10.792,0,0,0,0,3.191,2.229,2.229,0,0,0,.654,1.337,1.492,1.492,0,0,0,1.286.345,3.65,3.65,0,0,0,1.912-.977,9.057,9.057,0,0,0,1.516-1.811,11.136,11.136,0,0,0,.949-1.574,1.73,1.73,0,0,1,.036-.187q.4-1.973.949-4.01c.359-1.358.755-2.925,1.178-4.146s.776-2.2,1.064-2.932a2.04,2.04,0,0,1,.539-.719,1.317,1.317,0,0,1,.819-.309,2.951,2.951,0,0,1,1.3.316,8.772,8.772,0,0,1,1.373.776,6.264,6.264,0,0,1,1.063.92,1.41,1.41,0,0,1,.438.784,7.88,7.88,0,0,1-.374,2.572c-.28.92-.582,2.192-.905,3.234s-.611,2.149-.862,3.313a14.24,14.24,0,0,0-.316,3.6,2.171,2.171,0,0,0,.488,1.4,1.474,1.474,0,0,0,1.229.5,3.73,3.73,0,0,0,2.019-.74,9.2,9.2,0,0,0,1.725-1.61,11.232,11.232,0,0,0,1-1.265.007.007,0,0,0,.007-.007l.108-.453c.4-1.581.855-3.751,1.372-5.232s1.035-3.076,1.552-4.326.956-2.235,1.3-2.939a1.426,1.426,0,0,1,1.43-.92,3.666,3.666,0,0,1,1.48.532,6.459,6.459,0,0,1,2,2.415,13.675,13.675,0,0,1,2.5-1.3,19.01,19.01,0,0,1,2.63-1.013,10.261,10.261,0,0,1,3.306-.568,3.46,3.46,0,0,1,1.61.489,5.364,5.364,0,0,1,2.285,2.58,3.714,3.714,0,0,1,.295,1.567,9.784,9.784,0,0,1-.74,2.673c-.338.862-.683,1.746-1.056,2.666s-.719,1.832-1.057,2.767a9.68,9.68,0,0,0-.56,2.788,2.139,2.139,0,0,0,.374,1.437,1.442,1.442,0,0,0,1.186.6,3.6,3.6,0,0,0,2.07-.575,9.012,9.012,0,0,0,1.847-1.466,8.027,8.027,0,0,0,.8-.834c.18-.6.417-1.257.711-1.976.539-1.3,1.128-2.35,1.775-3.694s1.308-2.594,1.984-3.773c.23-.4.445-.776.654-1.121.165-.273.316-.539.46-.776.129-.216.252-.417.366-.6.057-.094.108-.18.165-.259a1.993,1.993,0,0,1,.683-.589,1.277,1.277,0,0,1,.862-.144,2.961,2.961,0,0,1,1.207.575l2.041,2.156a.593.593,0,0,1,.115.158,1.015,1.015,0,0,1,.158.7,7.009,7.009,0,0,1-.438,1.466c-.065.158-.136.309-.215.46-.043.086-.093.18-.144.273-.5.891-1.056,1.854-1.674,2.889s-1.193,2.113-1.732,3.262a13.451,13.451,0,0,0-1.135,3.55,1.947,1.947,0,0,0,.122,1.121.988.988,0,0,0,.79.6,3.088,3.088,0,0,0,.46.065.351.351,0,0,0,.086-.007,3.456,3.456,0,0,0,.625-.129,5.976,5.976,0,0,0,1.423-.647,9.7,9.7,0,0,0,1.322-.984,7.239,7.239,0,0,0,1.027-1.107,20.929,20.929,0,0,0,1.387-2.328c.373-.69.747-1.408,1.135-2.156l1.739-3.1.036-.057a.147.147,0,0,1,.029-.043c.194-.323.4-.661.6-1.049.043-.079.079-.158.122-.237L467,430.159a1.983,1.983,0,0,1,.675-.589,1.393,1.393,0,0,1,.913-.129,2.791,2.791,0,0,1,1.186.568,9.36,9.36,0,0,1,1.157,1.035,6.411,6.411,0,0,1,.862,1.114,1.416,1.416,0,0,1,.266.863,6.982,6.982,0,0,1-.216.891.118.118,0,0,1-.021.065,9.364,9.364,0,0,1-.647,1.487c-.46.841-.956,1.746-1.488,2.7s-1.042,1.976-1.545,3.061c-.072.151-.136.295-.2.431a9.342,9.342,0,0,0-.863,2.573,2.252,2.252,0,0,0,.194,1.473,1.508,1.508,0,0,0,1.107.74,1.3,1.3,0,0,0,.409,0h.007a1.745,1.745,0,0,0,.438-.122c.3-.122.6-.259.913-.417a5.355,5.355,0,0,0,1.013-.719,4.409,4.409,0,0,1,.539-.4.926.926,0,0,1,.5-.144h.007a1.036,1.036,0,0,1,.151.014,1.117,1.117,0,0,1,.7.489A1.089,1.089,0,0,1,473.283,445.968Z" transform="translate(-376.509 -415.538)"/>
    <g id="Grupo_3" data-name="Grupo 3" transform="translate(40.832)">
      <path id="Caminho_10" data-name="Caminho 10" class="simple-logo" d="M520.858,394.725a5.536,5.536,0,0,1-.247,1.857,5.422,5.422,0,0,1-.809,1.613,4.483,4.483,0,0,1-1.208,1.146,2.849,2.849,0,0,1-1.449.459,2.575,2.575,0,0,1-1.848-.656,2.628,2.628,0,0,1-.837-1.988,4.863,4.863,0,0,1,.274-1.786,5.974,5.974,0,0,1,.833-1.59,4.374,4.374,0,0,1,1.233-1.147,3.07,3.07,0,0,1,1.521-.461,2.336,2.336,0,0,1,1.776.659A2.648,2.648,0,0,1,520.858,394.725Z" transform="translate(-514.457 -392.17)"/>
    </g>
  </g>
</svg>
