<svg id="Grupo_1321" data-name="Grupo 1321" xmlns="https://www.w3.org/2000/svg" width="440.886" height="124.303" viewBox="0 0 440.886 124.303">
  <defs>
    <style>
      .symbols {
        fill: #fff;
      }
    </style>
  </defs>
  <g id="Grupo_1207" data-name="Grupo 1207">
    <g id="Grupo_1152" data-name="Grupo 1152" transform="translate(63.949 6.043)">
      <g id="Grupo_1151" data-name="Grupo 1151">
        <path id="Caminho_206" data-name="Caminho 206" class="symbols" d="M32.779,34.709a16.589,16.589,0,1,1,16.59-16.589A16.587,16.587,0,0,1,32.779,34.709Zm0-30.454A13.864,13.864,0,1,0,46.644,18.119,13.882,13.882,0,0,0,32.779,4.255Z" transform="translate(-16.19 -1.53)"/>
      </g>
    </g>
    <g id="Grupo_1168" data-name="Grupo 1168" transform="translate(418.845 3.515)">
      <g id="Grupo_1157" data-name="Grupo 1157">
        <g id="Componente_6_2_36_" transform="translate(0 27.215)">
          <g id="Caminho_27_36_" transform="translate(0 0)">
            <g id="Grupo_1153" data-name="Grupo 1153">
              <path id="Caminho_207" data-name="Caminho 207" class="symbols" d="M110.871,12.42a.316.316,0,0,1-.632,0A6.018,6.018,0,0,0,108.3,8.035a6.545,6.545,0,0,1-2.093-4.779.316.316,0,1,1,.632,0,6.017,6.017,0,0,0,1.935,4.384A6.474,6.474,0,0,1,110.871,12.42Z" transform="translate(-105.539 -2.308)"/>
              <path id="Caminho_208" data-name="Caminho 208" class="symbols" d="M107.659,3.056a.953.953,0,0,1,.277.671,5.489,5.489,0,0,0,1.777,3.989,7.1,7.1,0,0,1,2.251,5.214.948.948,0,1,1-1.9,0,5.489,5.489,0,0,0-1.777-3.989,7.171,7.171,0,0,1-2.251-5.214.961.961,0,0,1,.948-.948A.814.814,0,0,1,107.659,3.056Z" transform="translate(-106.04 -2.78)"/>
            </g>
          </g>
        </g>
        <g id="Componente_6_2_35_" transform="translate(0 18.209)">
          <g id="Caminho_27_35_" transform="translate(0 0)">
            <g id="Grupo_1154" data-name="Grupo 1154">
              <path id="Caminho_209" data-name="Caminho 209" class="symbols" d="M110.871.966a6.474,6.474,0,0,1-2.093,4.779,6.017,6.017,0,0,0-1.935,4.384.316.316,0,1,1-.632,0A6.474,6.474,0,0,1,108.3,5.35,6.018,6.018,0,0,0,110.239.966a.316.316,0,0,1,.632,0Z" transform="translate(-105.539 -0.058)"/>
              <path id="Caminho_210" data-name="Caminho 210" class="symbols" d="M111.688.776a.953.953,0,0,1,.277.671,7.171,7.171,0,0,1-2.251,5.214,5.419,5.419,0,0,0-1.777,3.989.948.948,0,1,1-1.9,0,7.171,7.171,0,0,1,2.251-5.214,5.419,5.419,0,0,0,1.777-3.989A.961.961,0,0,1,111.017.5.814.814,0,0,1,111.688.776Z" transform="translate(-106.04 -0.5)"/>
            </g>
          </g>
        </g>
        <g id="Componente_6_2_34_" transform="translate(0 9.006)">
          <g id="Caminho_27_34_">
            <g id="Grupo_1155" data-name="Grupo 1155">
              <path id="Caminho_211" data-name="Caminho 211" class="symbols" d="M110.871,7.81a.316.316,0,0,1-.632,0A6.018,6.018,0,0,0,108.3,3.425a6.545,6.545,0,0,1-2.093-4.779.34.34,0,0,1,.316-.316.34.34,0,0,1,.316.316,6.017,6.017,0,0,0,1.935,4.384A6.474,6.474,0,0,1,110.871,7.81Z" transform="translate(-105.539 2.302)"/>
              <path id="Caminho_212" data-name="Caminho 212" class="symbols" d="M107.659-1.554a.953.953,0,0,1,.277.671,5.489,5.489,0,0,0,1.777,3.989,7.1,7.1,0,0,1,2.251,5.214.961.961,0,0,1-.948.948.989.989,0,0,1-.948-.948,5.489,5.489,0,0,0-1.777-3.989A7.1,7.1,0,0,1,106.04-.882a.961.961,0,0,1,.948-.948A.953.953,0,0,1,107.659-1.554Z" transform="translate(-106.04 1.83)"/>
            </g>
          </g>
        </g>
        <g id="Componente_6_2_33_" transform="translate(0)">
          <g id="Caminho_27_33_">
            <g id="Grupo_1156" data-name="Grupo 1156">
              <path id="Caminho_213" data-name="Caminho 213" class="symbols" d="M110.871-3.634a6.474,6.474,0,0,1-2.093,4.779,6.017,6.017,0,0,0-1.935,4.384.316.316,0,1,1-.632,0A6.474,6.474,0,0,1,108.3.75a6.018,6.018,0,0,0,1.935-4.384.34.34,0,0,1,.316-.316A.312.312,0,0,1,110.871-3.634Z" transform="translate(-105.539 4.582)"/>
              <path id="Caminho_214" data-name="Caminho 214" class="symbols" d="M111.688-3.834a.953.953,0,0,1,.277.671,7.171,7.171,0,0,1-2.251,5.214,5.489,5.489,0,0,0-1.777,3.989.948.948,0,1,1-1.9,0A7.1,7.1,0,0,1,108.291.827a5.419,5.419,0,0,0,1.777-3.989.961.961,0,0,1,.948-.948A.953.953,0,0,1,111.688-3.834Z" transform="translate(-106.04 4.11)"/>
            </g>
          </g>
        </g>
      </g>
      <g id="Grupo_1162" data-name="Grupo 1162" transform="translate(8.058)">
        <g id="Componente_6_2_32_" transform="translate(0 27.215)">
          <g id="Caminho_27_32_" transform="translate(0 0)">
            <g id="Grupo_1158" data-name="Grupo 1158">
              <path id="Caminho_215" data-name="Caminho 215" class="symbols" d="M112.9,12.42a.316.316,0,1,1-.632,0,6.017,6.017,0,0,0-1.935-4.384,6.545,6.545,0,0,1-2.093-4.779.316.316,0,0,1,.632,0,6.018,6.018,0,0,0,1.935,4.384A6.473,6.473,0,0,1,112.9,12.42Z" transform="translate(-107.608 -2.308)"/>
              <path id="Caminho_216" data-name="Caminho 216" class="symbols" d="M109.7,3.056a.953.953,0,0,1,.276.671,5.489,5.489,0,0,0,1.777,3.989A7.1,7.1,0,0,1,114,12.931a.961.961,0,0,1-.948.948.936.936,0,0,1-.948-.948,5.489,5.489,0,0,0-1.777-3.989,7.1,7.1,0,0,1-2.251-5.214.961.961,0,0,1,.948-.948A.814.814,0,0,1,109.7,3.056Z" transform="translate(-108.08 -2.78)"/>
            </g>
          </g>
        </g>
        <g id="Componente_6_2_31_" transform="translate(0 18.209)">
          <g id="Caminho_27_31_" transform="translate(0 0)">
            <g id="Grupo_1159" data-name="Grupo 1159">
              <path id="Caminho_217" data-name="Caminho 217" class="symbols" d="M112.9.966a6.473,6.473,0,0,1-2.093,4.779,6.018,6.018,0,0,0-1.935,4.384.316.316,0,0,1-.632,0,6.474,6.474,0,0,1,2.093-4.779A6.017,6.017,0,0,0,112.269.966a.34.34,0,0,1,.316-.316A.312.312,0,0,1,112.9.966Z" transform="translate(-107.608 -0.058)"/>
              <path id="Caminho_218" data-name="Caminho 218" class="symbols" d="M113.728.776a.953.953,0,0,1,.276.671h0a7.171,7.171,0,0,1-2.251,5.214,5.419,5.419,0,0,0-1.777,3.989.961.961,0,0,1-.948.948.989.989,0,0,1-.948-.948,7.171,7.171,0,0,1,2.251-5.214,5.419,5.419,0,0,0,1.777-3.989A.961.961,0,0,1,113.057.5.814.814,0,0,1,113.728.776Z" transform="translate(-108.08 -0.5)"/>
            </g>
          </g>
        </g>
        <g id="Componente_6_2_30_" transform="translate(0.039 8.966)">
          <g id="Caminho_27_30_">
            <g id="Grupo_1160" data-name="Grupo 1160">
              <path id="Caminho_219" data-name="Caminho 219" class="symbols" d="M112.9,7.81a.316.316,0,1,1-.632,0,6.017,6.017,0,0,0-1.935-4.384,6.545,6.545,0,0,1-2.093-4.779.34.34,0,0,1,.316-.316.34.34,0,0,1,.316.316,6.018,6.018,0,0,0,1.935,4.384A6.473,6.473,0,0,1,112.9,7.81Z" transform="translate(-107.648 2.341)"/>
              <path id="Caminho_220" data-name="Caminho 220" class="symbols" d="M109.67-1.524a.953.953,0,0,1,.276.671,5.489,5.489,0,0,0,1.777,3.989,7.171,7.171,0,0,1,2.251,5.214h0a.919.919,0,0,1-.908.908.936.936,0,0,1-.948-.948,5.489,5.489,0,0,0-1.777-3.989A7.1,7.1,0,0,1,108.09-.892a.961.961,0,0,1,.948-.948A1.2,1.2,0,0,1,109.67-1.524Z" transform="translate(-108.09 1.84)"/>
            </g>
          </g>
        </g>
        <g id="Componente_6_2_29_" transform="translate(0)">
          <g id="Caminho_27_29_">
            <g id="Grupo_1161" data-name="Grupo 1161">
              <path id="Caminho_221" data-name="Caminho 221" class="symbols" d="M112.9-3.634a6.473,6.473,0,0,1-2.093,4.779,6.018,6.018,0,0,0-1.935,4.384.316.316,0,0,1-.632,0A6.474,6.474,0,0,1,110.333.75a6.017,6.017,0,0,0,1.935-4.384.34.34,0,0,1,.316-.316A.291.291,0,0,1,112.9-3.634Z" transform="translate(-107.608 4.582)"/>
              <path id="Caminho_222" data-name="Caminho 222" class="symbols" d="M113.728-3.834a.953.953,0,0,1,.276.671,7.171,7.171,0,0,1-2.251,5.214,5.419,5.419,0,0,0-1.777,3.989.948.948,0,1,1-1.9,0A7.171,7.171,0,0,1,110.331.827a5.489,5.489,0,0,0,1.777-3.989.961.961,0,0,1,.948-.948A.953.953,0,0,1,113.728-3.834Z" transform="translate(-108.08 4.11)"/>
            </g>
          </g>
        </g>
      </g>
      <g id="Grupo_1167" data-name="Grupo 1167" transform="translate(16.116)">
        <g id="Componente_6_2_28_" transform="translate(0 27.215)">
          <g id="Caminho_27_28_" transform="translate(0 0)">
            <g id="Grupo_1163" data-name="Grupo 1163">
              <path id="Caminho_223" data-name="Caminho 223" class="symbols" d="M114.941,12.42a.316.316,0,0,1-.632,0,6.017,6.017,0,0,0-1.935-4.384,6.545,6.545,0,0,1-2.093-4.779.316.316,0,0,1,.632,0,6.018,6.018,0,0,0,1.935,4.384A6.473,6.473,0,0,1,114.941,12.42Z" transform="translate(-109.648 -2.308)"/>
              <path id="Caminho_224" data-name="Caminho 224" class="symbols" d="M111.739,3.056a.953.953,0,0,1,.276.671,5.489,5.489,0,0,0,1.777,3.989,7.1,7.1,0,0,1,2.251,5.214.948.948,0,1,1-1.9,0,5.489,5.489,0,0,0-1.777-3.989,7.1,7.1,0,0,1-2.251-5.214.961.961,0,0,1,.948-.948A.866.866,0,0,1,111.739,3.056Z" transform="translate(-110.12 -2.78)"/>
            </g>
          </g>
        </g>
        <g id="Componente_6_2_27_" transform="translate(0 18.209)">
          <g id="Caminho_27_27_" transform="translate(0 0)">
            <g id="Grupo_1164" data-name="Grupo 1164">
              <path id="Caminho_225" data-name="Caminho 225" class="symbols" d="M114.941.966a6.473,6.473,0,0,1-2.093,4.779,6.018,6.018,0,0,0-1.935,4.384.316.316,0,0,1-.632,0,6.474,6.474,0,0,1,2.093-4.779A6.017,6.017,0,0,0,114.309.966a.316.316,0,0,1,.632,0Z" transform="translate(-109.648 -0.058)"/>
              <path id="Caminho_226" data-name="Caminho 226" class="symbols" d="M115.768.776a.953.953,0,0,1,.277.671,7.171,7.171,0,0,1-2.251,5.214,5.419,5.419,0,0,0-1.777,3.989.961.961,0,0,1-.948.948.989.989,0,0,1-.948-.948,7.171,7.171,0,0,1,2.251-5.214,5.419,5.419,0,0,0,1.777-3.989A.961.961,0,0,1,115.1.5.814.814,0,0,1,115.768.776Z" transform="translate(-110.12 -0.5)"/>
            </g>
          </g>
        </g>
        <g id="Componente_6_2_26_" transform="translate(0 9.006)">
          <g id="Caminho_27_26_">
            <g id="Grupo_1165" data-name="Grupo 1165">
              <path id="Caminho_227" data-name="Caminho 227" class="symbols" d="M114.941,7.81a.316.316,0,0,1-.632,0,6.017,6.017,0,0,0-1.935-4.384,6.545,6.545,0,0,1-2.093-4.779.34.34,0,0,1,.316-.316.34.34,0,0,1,.316.316,6.018,6.018,0,0,0,1.935,4.384A6.473,6.473,0,0,1,114.941,7.81Z" transform="translate(-109.648 2.302)"/>
              <path id="Caminho_228" data-name="Caminho 228" class="symbols" d="M111.739-1.554a.953.953,0,0,1,.276.671,5.489,5.489,0,0,0,1.777,3.989,7.171,7.171,0,0,1,2.251,5.214.961.961,0,0,1-.948.948.989.989,0,0,1-.948-.948,5.489,5.489,0,0,0-1.777-3.989A7.1,7.1,0,0,1,110.12-.882a.961.961,0,0,1,.948-.948A1.12,1.12,0,0,1,111.739-1.554Z" transform="translate(-110.12 1.83)"/>
            </g>
          </g>
        </g>
        <g id="Componente_6_2_25_" transform="translate(0)">
          <g id="Caminho_27_25_">
            <g id="Grupo_1166" data-name="Grupo 1166">
              <path id="Caminho_229" data-name="Caminho 229" class="symbols" d="M114.941-3.634a6.473,6.473,0,0,1-2.093,4.779,6.018,6.018,0,0,0-1.935,4.384.316.316,0,0,1-.632,0A6.474,6.474,0,0,1,112.373.75a6.017,6.017,0,0,0,1.935-4.384.34.34,0,0,1,.316-.316A.312.312,0,0,1,114.941-3.634Z" transform="translate(-109.648 4.582)"/>
              <path id="Caminho_230" data-name="Caminho 230" class="symbols" d="M115.768-3.834a.953.953,0,0,1,.277.671,7.1,7.1,0,0,1-2.251,5.214,5.489,5.489,0,0,0-1.777,3.989.948.948,0,1,1-1.9,0A7.171,7.171,0,0,1,112.371.827a5.419,5.419,0,0,0,1.777-3.989.989.989,0,0,1,.948-.948A.953.953,0,0,1,115.768-3.834Z" transform="translate(-110.12 4.11)"/>
            </g>
          </g>
        </g>
      </g>
    </g>
    <g id="Grupo_1175" data-name="Grupo 1175">
      <g id="Grupo_1171" data-name="Grupo 1171" transform="translate(0 21.408)">
        <g id="Grupo_1169" data-name="Grupo 1169" transform="translate(29.466)">
          <path id="Caminho_231" data-name="Caminho 231" class="symbols" d="M7.46,7.908V5.42H23.3V7.908Z" transform="translate(-7.46 -5.42)"/>
        </g>
        <g id="Grupo_1170" data-name="Grupo 1170">
          <path id="Caminho_232" data-name="Caminho 232" class="symbols" d="M0,7.908V5.42H15.839V7.908Z" transform="translate(0 -5.42)"/>
        </g>
      </g>
      <g id="Grupo_1174" data-name="Grupo 1174" transform="translate(21.408)">
        <g id="Grupo_1172" data-name="Grupo 1172" transform="translate(0 29.466)">
          <path id="Caminho_233" data-name="Caminho 233" class="symbols" d="M5.42,7.46H7.908V23.3H5.42Z" transform="translate(-5.42 -7.46)"/>
        </g>
        <g id="Grupo_1173" data-name="Grupo 1173">
          <path id="Caminho_234" data-name="Caminho 234" class="symbols" d="M5.42,0H7.908V15.839H5.42Z" transform="translate(-5.42)"/>
        </g>
      </g>
    </g>
    <g id="Grupo_1182" data-name="Grupo 1182" transform="translate(115.811)">
      <g id="Grupo_1178" data-name="Grupo 1178" transform="translate(0 21.408)">
        <g id="Grupo_1176" data-name="Grupo 1176" transform="translate(29.427)">
          <path id="Caminho_235" data-name="Caminho 235" class="symbols" d="M36.77,7.908V5.42H52.609V7.908Z" transform="translate(-36.77 -5.42)"/>
        </g>
        <g id="Grupo_1177" data-name="Grupo 1177">
          <path id="Caminho_236" data-name="Caminho 236" class="symbols" d="M29.32,7.908V5.42H45.159V7.908Z" transform="translate(-29.32 -5.42)"/>
        </g>
      </g>
      <g id="Grupo_1181" data-name="Grupo 1181" transform="translate(21.408)">
        <g id="Grupo_1179" data-name="Grupo 1179" transform="translate(0 29.466)">
          <path id="Caminho_237" data-name="Caminho 237" class="symbols" d="M34.74,7.46h2.488V23.3H34.74Z" transform="translate(-34.74 -7.46)"/>
        </g>
        <g id="Grupo_1180" data-name="Grupo 1180">
          <path id="Caminho_238" data-name="Caminho 238" class="symbols" d="M34.74,0h2.488V15.839H34.74Z" transform="translate(-34.74)"/>
        </g>
      </g>
    </g>
    <g id="Grupo_1189" data-name="Grupo 1189" transform="translate(231.582)">
      <g id="Grupo_1185" data-name="Grupo 1185" transform="translate(0 21.408)">
        <g id="Grupo_1183" data-name="Grupo 1183" transform="translate(29.466)">
          <path id="Caminho_239" data-name="Caminho 239" class="symbols" d="M66.09,7.908V5.42H81.929V7.908Z" transform="translate(-66.09 -5.42)"/>
        </g>
        <g id="Grupo_1184" data-name="Grupo 1184">
          <path id="Caminho_240" data-name="Caminho 240" class="symbols" d="M58.63,7.908V5.42H74.469V7.908Z" transform="translate(-58.63 -5.42)"/>
        </g>
      </g>
      <g id="Grupo_1188" data-name="Grupo 1188" transform="translate(21.408)">
        <g id="Grupo_1186" data-name="Grupo 1186" transform="translate(0 29.466)">
          <path id="Caminho_241" data-name="Caminho 241" class="symbols" d="M64.05,7.46h2.488V23.3H64.05Z" transform="translate(-64.05 -7.46)"/>
        </g>
        <g id="Grupo_1187" data-name="Grupo 1187">
          <path id="Caminho_242" data-name="Caminho 242" class="symbols" d="M64.05,0h2.488V15.839H64.05Z" transform="translate(-64.05)"/>
        </g>
      </g>
    </g>
    <g id="Grupo_1196" data-name="Grupo 1196" transform="translate(347.392)">
      <g id="Grupo_1192" data-name="Grupo 1192" transform="translate(0 21.408)">
        <g id="Grupo_1190" data-name="Grupo 1190" transform="translate(29.466)">
          <path id="Caminho_243" data-name="Caminho 243" class="symbols" d="M95.41,7.908V5.42h15.839V7.908Z" transform="translate(-95.41 -5.42)"/>
        </g>
        <g id="Grupo_1191" data-name="Grupo 1191">
          <path id="Caminho_244" data-name="Caminho 244" class="symbols" d="M87.95,7.908V5.42h15.839V7.908Z" transform="translate(-87.95 -5.42)"/>
        </g>
      </g>
      <g id="Grupo_1195" data-name="Grupo 1195" transform="translate(21.408)">
        <g id="Grupo_1193" data-name="Grupo 1193" transform="translate(0 29.466)">
          <path id="Caminho_245" data-name="Caminho 245" class="symbols" d="M93.37,7.46h2.488V23.3H93.37Z" transform="translate(-93.37 -7.46)"/>
        </g>
        <g id="Grupo_1194" data-name="Grupo 1194">
          <path id="Caminho_246" data-name="Caminho 246" class="symbols" d="M93.37,0h2.488V15.839H93.37Z" transform="translate(-93.37)"/>
        </g>
      </g>
    </g>
    <g id="Grupo_1200" data-name="Grupo 1200" transform="translate(302.798 13.509)">
      <g id="Grupo_1197" data-name="Grupo 1197">
        <path id="Caminho_247" data-name="Caminho 247" class="symbols" d="M95.382,3.42V6.343H76.66V3.42Z" transform="translate(-76.66 -3.42)"/>
      </g>
      <g id="Grupo_1198" data-name="Grupo 1198" transform="translate(0 7.11)">
        <path id="Caminho_248" data-name="Caminho 248" class="symbols" d="M95.382,5.22V8.143H76.66V5.22Z" transform="translate(-76.66 -5.22)"/>
      </g>
      <g id="Grupo_1199" data-name="Grupo 1199" transform="translate(0 14.22)">
        <path id="Caminho_249" data-name="Caminho 249" class="symbols" d="M95.382,7.02V9.943H76.66V7.02Z" transform="translate(-76.66 -7.02)"/>
      </g>
    </g>
    <g id="Grupo_1206" data-name="Grupo 1206" transform="translate(178.061 2.646)">
      <g id="Grupo_1202" data-name="Grupo 1202" transform="translate(0 1.975)">
        <g id="Grupo_1201" data-name="Grupo 1201">
          <path id="Caminho_250" data-name="Caminho 250" class="symbols" d="M61.67,34.349A16.589,16.589,0,1,1,73.4,29.491,16.572,16.572,0,0,1,61.67,34.349Zm0-30.454a13.688,13.688,0,0,0-9.8,4.068A13.867,13.867,0,1,0,71.5,7.924,14.141,14.141,0,0,0,61.67,3.9Z" transform="translate(-45.08 -1.17)"/>
        </g>
      </g>
      <g id="Grupo_1205" data-name="Grupo 1205" transform="translate(18.959)">
        <g id="Grupo_1203" data-name="Grupo 1203">
          <path id="Caminho_251" data-name="Caminho 251" class="symbols" d="M61.1.67l1.738,1.738L51.657,13.586,49.88,11.848Z" transform="translate(-49.88 -0.67)"/>
        </g>
        <g id="Grupo_1204" data-name="Grupo 1204" transform="translate(3.318 3.278)">
          <path id="Caminho_252" data-name="Caminho 252" class="symbols" d="M61.9,1.5l1.738,1.738L52.458,14.416,50.72,12.678Z" transform="translate(-50.72 -1.5)"/>
        </g>
      </g>
    </g>
  </g>
  <g id="Grupo_1264" data-name="Grupo 1264" transform="translate(0 78.998)">
    <g id="Grupo_1209" data-name="Grupo 1209" transform="translate(343.758 6.043)">
      <g id="Grupo_1208" data-name="Grupo 1208">
        <path id="Caminho_253" data-name="Caminho 253" class="symbols" d="M87.03,38.119a16.59,16.59,0,1,1,16.59,16.59A16.587,16.587,0,0,1,87.03,38.119Zm2.686,0A13.864,13.864,0,1,0,103.58,24.255,13.882,13.882,0,0,0,89.716,38.119Z" transform="translate(-87.03 -21.53)"/>
      </g>
    </g>
    <g id="Grupo_1225" data-name="Grupo 1225" transform="translate(0 3.515)">
      <g id="Grupo_1214" data-name="Grupo 1214" transform="translate(16.076)">
        <g id="Componente_6_2_24_" transform="translate(0 27.215)">
          <g id="Caminho_27_24_">
            <g id="Grupo_1210" data-name="Grupo 1210">
              <path id="Caminho_254" data-name="Caminho 254" class="symbols" d="M4.23,32.42a.34.34,0,0,0,.316.316.34.34,0,0,0,.316-.316A6.018,6.018,0,0,1,6.8,28.035a6.545,6.545,0,0,0,2.093-4.779.316.316,0,1,0-.632,0A6.018,6.018,0,0,1,6.323,27.64,6.473,6.473,0,0,0,4.23,32.42Z" transform="translate(-3.598 -22.308)"/>
              <path id="Caminho_255" data-name="Caminho 255" class="symbols" d="M8.375,23.056a.953.953,0,0,0-.276.671,5.489,5.489,0,0,1-1.777,3.989A7.1,7.1,0,0,0,4.07,32.931a.948.948,0,1,0,1.9,0,5.489,5.489,0,0,1,1.777-3.989,7.171,7.171,0,0,0,2.251-5.214.961.961,0,0,0-.948-.948A.925.925,0,0,0,8.375,23.056Z" transform="translate(-4.07 -22.78)"/>
            </g>
          </g>
        </g>
        <g id="Componente_6_2_23_" transform="translate(0 18.209)">
          <g id="Caminho_27_23_" transform="translate(0 0)">
            <g id="Grupo_1211" data-name="Grupo 1211">
              <path id="Caminho_256" data-name="Caminho 256" class="symbols" d="M4.23,20.966a6.474,6.474,0,0,0,2.093,4.779A6.017,6.017,0,0,1,8.259,30.13a.316.316,0,0,0,.632,0A6.473,6.473,0,0,0,6.8,25.35a6.017,6.017,0,0,1-1.935-4.384.34.34,0,0,0-.316-.316A.34.34,0,0,0,4.23,20.966Z" transform="translate(-3.598 -20.058)"/>
              <path id="Caminho_257" data-name="Caminho 257" class="symbols" d="M4.346,20.776a.953.953,0,0,0-.276.671,7.171,7.171,0,0,0,2.251,5.214A5.419,5.419,0,0,1,8.1,30.651a.948.948,0,1,0,1.9,0,7.171,7.171,0,0,0-2.251-5.214,5.419,5.419,0,0,1-1.777-3.989.961.961,0,0,0-.948-.948A.925.925,0,0,0,4.346,20.776Z" transform="translate(-4.07 -20.5)"/>
            </g>
          </g>
        </g>
        <g id="Componente_6_2_22_" transform="translate(0.039 9.006)">
          <g id="Caminho_27_22_">
            <g id="Grupo_1212" data-name="Grupo 1212">
              <path id="Caminho_258" data-name="Caminho 258" class="symbols" d="M4.23,27.81a.34.34,0,0,0,.316.316.34.34,0,0,0,.316-.316A6.018,6.018,0,0,1,6.8,23.425a6.545,6.545,0,0,0,2.093-4.779.316.316,0,1,0-.632,0A6.018,6.018,0,0,1,6.323,23.03,6.474,6.474,0,0,0,4.23,27.81Z" transform="translate(-3.638 -17.698)"/>
              <path id="Caminho_259" data-name="Caminho 259" class="symbols" d="M8.385,18.446a.953.953,0,0,0-.276.671,5.489,5.489,0,0,1-1.777,3.989A7.1,7.1,0,0,0,4.08,28.321a.961.961,0,0,0,.948.948.989.989,0,0,0,.948-.948,5.489,5.489,0,0,1,1.777-3.989A7.1,7.1,0,0,0,10,19.118a.95.95,0,0,0-1.619-.671Z" transform="translate(-4.08 -18.17)"/>
            </g>
          </g>
        </g>
        <g id="Componente_6_2_21_" transform="translate(0)">
          <g id="Caminho_27_21_">
            <g id="Grupo_1213" data-name="Grupo 1213">
              <path id="Caminho_260" data-name="Caminho 260" class="symbols" d="M4.23,16.366a6.474,6.474,0,0,0,2.093,4.779A6.018,6.018,0,0,1,8.259,25.53a.316.316,0,1,0,.632,0A6.474,6.474,0,0,0,6.8,20.75a6.017,6.017,0,0,1-1.935-4.384.34.34,0,0,0-.316-.316A.312.312,0,0,0,4.23,16.366Z" transform="translate(-3.598 -15.418)"/>
              <path id="Caminho_261" data-name="Caminho 261" class="symbols" d="M4.346,16.166a.953.953,0,0,0-.276.671,7.171,7.171,0,0,0,2.251,5.214A5.489,5.489,0,0,1,8.1,26.041a.948.948,0,0,0,1.9,0,7.1,7.1,0,0,0-2.251-5.214,5.419,5.419,0,0,1-1.777-3.989.961.961,0,0,0-.948-.948A1.121,1.121,0,0,0,4.346,16.166Z" transform="translate(-4.07 -15.89)"/>
            </g>
          </g>
        </g>
      </g>
      <g id="Grupo_1219" data-name="Grupo 1219" transform="translate(8.058)">
        <g id="Componente_6_2_20_" transform="translate(0 27.215)">
          <g id="Caminho_27_20_">
            <g id="Grupo_1215" data-name="Grupo 1215">
              <path id="Caminho_262" data-name="Caminho 262" class="symbols" d="M2.2,32.42a.34.34,0,0,0,.316.316.34.34,0,0,0,.316-.316,6.018,6.018,0,0,1,1.935-4.384,6.545,6.545,0,0,0,2.093-4.779.316.316,0,1,0-.632,0A6.018,6.018,0,0,1,4.293,27.64,6.332,6.332,0,0,0,2.2,32.42Z" transform="translate(-1.568 -22.308)"/>
              <path id="Caminho_263" data-name="Caminho 263" class="symbols" d="M6.345,23.056a.953.953,0,0,0-.276.671,5.489,5.489,0,0,1-1.777,3.989A7.1,7.1,0,0,0,2.04,32.931a.961.961,0,0,0,.948.948.936.936,0,0,0,.948-.948,5.489,5.489,0,0,1,1.777-3.989,7.1,7.1,0,0,0,2.251-5.214.961.961,0,0,0-.948-.948A.814.814,0,0,0,6.345,23.056Z" transform="translate(-2.04 -22.78)"/>
            </g>
          </g>
        </g>
        <g id="Componente_6_2_19_" transform="translate(0 18.209)">
          <g id="Caminho_27_19_" transform="translate(0 0)">
            <g id="Grupo_1216" data-name="Grupo 1216">
              <path id="Caminho_264" data-name="Caminho 264" class="symbols" d="M2.2,20.966a6.474,6.474,0,0,0,2.093,4.779A6.017,6.017,0,0,1,6.229,30.13a.316.316,0,1,0,.632,0A6.473,6.473,0,0,0,4.767,25.35a6.017,6.017,0,0,1-1.935-4.384.34.34,0,0,0-.316-.316A.34.34,0,0,0,2.2,20.966Z" transform="translate(-1.568 -20.058)"/>
              <path id="Caminho_265" data-name="Caminho 265" class="symbols" d="M2.316,20.776a.953.953,0,0,0-.276.671h0a7.171,7.171,0,0,0,2.251,5.214,5.419,5.419,0,0,1,1.777,3.989.961.961,0,0,0,.948.948.989.989,0,0,0,.948-.948,7.171,7.171,0,0,0-2.251-5.214,5.419,5.419,0,0,1-1.777-3.989.961.961,0,0,0-.948-.948A.814.814,0,0,0,2.316,20.776Z" transform="translate(-2.04 -20.5)"/>
            </g>
          </g>
        </g>
        <g id="Componente_6_2_18_" transform="translate(0 8.966)">
          <g id="Caminho_27_18_" transform="translate(0 0)">
            <g id="Grupo_1217" data-name="Grupo 1217">
              <path id="Caminho_266" data-name="Caminho 266" class="symbols" d="M2.2,27.81a.34.34,0,0,0,.316.316.34.34,0,0,0,.316-.316,6.018,6.018,0,0,1,1.935-4.384,6.545,6.545,0,0,0,2.093-4.779.316.316,0,1,0-.632,0A6.018,6.018,0,0,1,4.293,23.03,6.332,6.332,0,0,0,2.2,27.81Z" transform="translate(-1.568 -17.659)"/>
              <path id="Caminho_267" data-name="Caminho 267" class="symbols" d="M6.345,18.476a.953.953,0,0,0-.276.671,5.489,5.489,0,0,1-1.777,3.989A7.171,7.171,0,0,0,2.04,28.351h0a.919.919,0,0,0,.908.908.936.936,0,0,0,.948-.948,5.489,5.489,0,0,1,1.777-3.989,7.1,7.1,0,0,0,2.251-5.214.961.961,0,0,0-.948-.948A1.2,1.2,0,0,0,6.345,18.476Z" transform="translate(-2.04 -18.16)"/>
            </g>
          </g>
        </g>
        <g id="Componente_6_2_17_">
          <g id="Caminho_27_17_">
            <g id="Grupo_1218" data-name="Grupo 1218">
              <path id="Caminho_268" data-name="Caminho 268" class="symbols" d="M2.2,16.366a6.474,6.474,0,0,0,2.093,4.779A6.018,6.018,0,0,1,6.229,25.53a.316.316,0,1,0,.632,0A6.474,6.474,0,0,0,4.767,20.75a6.017,6.017,0,0,1-1.935-4.384.34.34,0,0,0-.316-.316A.312.312,0,0,0,2.2,16.366Z" transform="translate(-1.568 -15.418)"/>
              <path id="Caminho_269" data-name="Caminho 269" class="symbols" d="M2.316,16.166a.953.953,0,0,0-.276.671,7.171,7.171,0,0,0,2.251,5.214,5.419,5.419,0,0,1,1.777,3.989.948.948,0,0,0,1.9,0,7.171,7.171,0,0,0-2.251-5.214,5.489,5.489,0,0,1-1.777-3.989.95.95,0,0,0-1.619-.671Z" transform="translate(-2.04 -15.89)"/>
            </g>
          </g>
        </g>
      </g>
      <g id="Grupo_1224" data-name="Grupo 1224">
        <g id="Componente_6_2_16_" transform="translate(0 27.175)">
          <g id="Caminho_27_16_">
            <g id="Grupo_1220" data-name="Grupo 1220">
              <path id="Caminho_270" data-name="Caminho 270" class="symbols" d="M.16,32.42a.34.34,0,0,0,.316.316.34.34,0,0,0,.316-.316,6.018,6.018,0,0,1,1.935-4.384,6.545,6.545,0,0,0,2.093-4.779A.34.34,0,0,0,4.5,22.94a.34.34,0,0,0-.316.316A6.018,6.018,0,0,1,2.253,27.64,6.473,6.473,0,0,0,.16,32.42Z" transform="translate(0.472 -22.269)"/>
              <path id="Caminho_271" data-name="Caminho 271" class="symbols" d="M4.305,23.086a.953.953,0,0,0-.276.671,5.489,5.489,0,0,1-1.777,3.989A6.929,6.929,0,0,0,0,32.921a.961.961,0,0,0,.948.948.961.961,0,0,0,.948-.948,5.489,5.489,0,0,1,1.777-3.989,7.1,7.1,0,0,0,2.251-5.214.961.961,0,0,0-.948-.948A.984.984,0,0,0,4.305,23.086Z" transform="translate(0 -22.77)"/>
            </g>
          </g>
        </g>
        <g id="Componente_6_2_15_" transform="translate(0 18.169)">
          <g id="Caminho_27_15_">
            <g id="Grupo_1221" data-name="Grupo 1221">
              <path id="Caminho_272" data-name="Caminho 272" class="symbols" d="M.16,20.966a6.474,6.474,0,0,0,2.093,4.779A6.017,6.017,0,0,1,4.189,30.13a.34.34,0,0,0,.316.316.34.34,0,0,0,.316-.316A6.473,6.473,0,0,0,2.727,25.35,6.017,6.017,0,0,1,.792,20.966a.34.34,0,0,0-.316-.316A.34.34,0,0,0,.16,20.966Z" transform="translate(0.472 -20.018)"/>
              <path id="Caminho_273" data-name="Caminho 273" class="symbols" d="M.276,20.806A.932.932,0,0,0,0,21.438a7.171,7.171,0,0,0,2.251,5.214,5.419,5.419,0,0,1,1.777,3.989.961.961,0,0,0,.948.948.989.989,0,0,0,.948-.948,7.171,7.171,0,0,0-2.251-5.214A5.419,5.419,0,0,1,1.9,21.438a.961.961,0,0,0-.948-.948A.984.984,0,0,0,.276,20.806Z" transform="translate(0 -20.49)"/>
            </g>
          </g>
        </g>
        <g id="Componente_6_2_14_" transform="translate(0 8.966)">
          <g id="Caminho_27_14_" transform="translate(0 0)">
            <g id="Grupo_1222" data-name="Grupo 1222">
              <path id="Caminho_274" data-name="Caminho 274" class="symbols" d="M.16,27.81a.34.34,0,0,0,.316.316.34.34,0,0,0,.316-.316,6.018,6.018,0,0,1,1.935-4.384,6.545,6.545,0,0,0,2.093-4.779A.34.34,0,0,0,4.5,18.33a.34.34,0,0,0-.316.316A6.018,6.018,0,0,1,2.253,23.03,6.474,6.474,0,0,0,.16,27.81Z" transform="translate(0.472 -17.659)"/>
              <path id="Caminho_275" data-name="Caminho 275" class="symbols" d="M4.305,18.476a.953.953,0,0,0-.276.671,5.489,5.489,0,0,1-1.777,3.989A7,7,0,0,0,0,28.311a.961.961,0,0,0,.948.948.989.989,0,0,0,.948-.948,5.489,5.489,0,0,1,1.777-3.989,7.1,7.1,0,0,0,2.251-5.214.961.961,0,0,0-.948-.948A1.19,1.19,0,0,0,4.305,18.476Z" transform="translate(0 -18.16)"/>
            </g>
          </g>
        </g>
        <g id="Componente_6_2_13_">
          <g id="Caminho_27_13_">
            <g id="Grupo_1223" data-name="Grupo 1223">
              <path id="Caminho_276" data-name="Caminho 276" class="symbols" d="M.16,16.366a6.474,6.474,0,0,0,2.093,4.779A6.018,6.018,0,0,1,4.189,25.53a.34.34,0,0,0,.316.316.34.34,0,0,0,.316-.316A6.474,6.474,0,0,0,2.727,20.75,6.017,6.017,0,0,1,.792,16.366a.34.34,0,0,0-.316-.316A.312.312,0,0,0,.16,16.366Z" transform="translate(0.472 -15.418)"/>
              <path id="Caminho_277" data-name="Caminho 277" class="symbols" d="M.276,16.166A.953.953,0,0,0,0,16.838a7.1,7.1,0,0,0,2.251,5.214,5.489,5.489,0,0,1,1.777,3.989.948.948,0,0,0,1.9,0,7.171,7.171,0,0,0-2.251-5.214A5.419,5.419,0,0,1,1.9,16.838a.989.989,0,0,0-.948-.948A.953.953,0,0,0,.276,16.166Z" transform="translate(0 -15.89)"/>
            </g>
          </g>
        </g>
      </g>
    </g>
    <g id="Grupo_1232" data-name="Grupo 1232" transform="translate(395.581)">
      <g id="Grupo_1228" data-name="Grupo 1228" transform="translate(0 21.408)">
        <g id="Grupo_1226" data-name="Grupo 1226">
          <path id="Caminho_278" data-name="Caminho 278" class="symbols" d="M100.15,27.908V25.42h15.839v2.488Z" transform="translate(-100.15 -25.42)"/>
        </g>
        <g id="Grupo_1227" data-name="Grupo 1227" transform="translate(29.466)">
          <path id="Caminho_279" data-name="Caminho 279" class="symbols" d="M107.61,27.908V25.42h15.839v2.488Z" transform="translate(-107.61 -25.42)"/>
        </g>
      </g>
      <g id="Grupo_1231" data-name="Grupo 1231" transform="translate(21.408)">
        <g id="Grupo_1229" data-name="Grupo 1229" transform="translate(0 29.466)">
          <path id="Caminho_280" data-name="Caminho 280" class="symbols" d="M108.058,43.3H105.57V27.46h2.488Z" transform="translate(-105.57 -27.46)"/>
        </g>
        <g id="Grupo_1230" data-name="Grupo 1230">
          <path id="Caminho_281" data-name="Caminho 281" class="symbols" d="M108.058,35.839H105.57V20h2.488Z" transform="translate(-105.57 -20)"/>
        </g>
      </g>
    </g>
    <g id="Grupo_1239" data-name="Grupo 1239" transform="translate(279.77)">
      <g id="Grupo_1235" data-name="Grupo 1235" transform="translate(0 21.408)">
        <g id="Grupo_1233" data-name="Grupo 1233">
          <path id="Caminho_282" data-name="Caminho 282" class="symbols" d="M70.83,27.908V25.42H86.669v2.488Z" transform="translate(-70.83 -25.42)"/>
        </g>
        <g id="Grupo_1234" data-name="Grupo 1234" transform="translate(29.466)">
          <path id="Caminho_283" data-name="Caminho 283" class="symbols" d="M78.29,27.908V25.42H94.129v2.488Z" transform="translate(-78.29 -25.42)"/>
        </g>
      </g>
      <g id="Grupo_1238" data-name="Grupo 1238" transform="translate(21.408)">
        <g id="Grupo_1236" data-name="Grupo 1236" transform="translate(0 29.466)">
          <path id="Caminho_284" data-name="Caminho 284" class="symbols" d="M78.738,43.3H76.25V27.46h2.488Z" transform="translate(-76.25 -27.46)"/>
        </g>
        <g id="Grupo_1237" data-name="Grupo 1237">
          <path id="Caminho_285" data-name="Caminho 285" class="symbols" d="M78.738,35.839H76.25V20h2.488Z" transform="translate(-76.25 -20)"/>
        </g>
      </g>
    </g>
    <g id="Grupo_1246" data-name="Grupo 1246" transform="translate(163.999)">
      <g id="Grupo_1242" data-name="Grupo 1242" transform="translate(0 21.408)">
        <g id="Grupo_1240" data-name="Grupo 1240">
          <path id="Caminho_286" data-name="Caminho 286" class="symbols" d="M41.52,27.908V25.42H57.359v2.488Z" transform="translate(-41.52 -25.42)"/>
        </g>
        <g id="Grupo_1241" data-name="Grupo 1241" transform="translate(29.427)">
          <path id="Caminho_287" data-name="Caminho 287" class="symbols" d="M48.97,27.908V25.42H64.809v2.488Z" transform="translate(-48.97 -25.42)"/>
        </g>
      </g>
      <g id="Grupo_1245" data-name="Grupo 1245" transform="translate(21.369)">
        <g id="Grupo_1243" data-name="Grupo 1243" transform="translate(0 29.466)">
          <path id="Caminho_288" data-name="Caminho 288" class="symbols" d="M49.418,43.3H46.93V27.46h2.488Z" transform="translate(-46.93 -27.46)"/>
        </g>
        <g id="Grupo_1244" data-name="Grupo 1244">
          <path id="Caminho_289" data-name="Caminho 289" class="symbols" d="M49.418,35.839H46.93V20h2.488Z" transform="translate(-46.93 -20)"/>
        </g>
      </g>
    </g>
    <g id="Grupo_1253" data-name="Grupo 1253" transform="translate(48.189)">
      <g id="Grupo_1249" data-name="Grupo 1249" transform="translate(0 21.408)">
        <g id="Grupo_1247" data-name="Grupo 1247">
          <path id="Caminho_290" data-name="Caminho 290" class="symbols" d="M12.2,27.908V25.42H28.039v2.488Z" transform="translate(-12.2 -25.42)"/>
        </g>
        <g id="Grupo_1248" data-name="Grupo 1248" transform="translate(29.466)">
          <path id="Caminho_291" data-name="Caminho 291" class="symbols" d="M19.66,27.908V25.42H35.5v2.488Z" transform="translate(-19.66 -25.42)"/>
        </g>
      </g>
      <g id="Grupo_1252" data-name="Grupo 1252" transform="translate(21.408)">
        <g id="Grupo_1250" data-name="Grupo 1250" transform="translate(0 29.466)">
          <path id="Caminho_292" data-name="Caminho 292" class="symbols" d="M20.108,43.3H17.62V27.46h2.488Z" transform="translate(-17.62 -27.46)"/>
        </g>
        <g id="Grupo_1251" data-name="Grupo 1251">
          <path id="Caminho_293" data-name="Caminho 293" class="symbols" d="M20.108,35.839H17.62V20h2.488Z" transform="translate(-17.62 -20)"/>
        </g>
      </g>
    </g>
    <g id="Grupo_1257" data-name="Grupo 1257" transform="translate(119.365 13.509)">
      <g id="Grupo_1254" data-name="Grupo 1254">
        <path id="Caminho_294" data-name="Caminho 294" class="symbols" d="M48.942,23.42v2.923H30.22V23.42Z" transform="translate(-30.22 -23.42)"/>
      </g>
      <g id="Grupo_1255" data-name="Grupo 1255" transform="translate(0 7.11)">
        <path id="Caminho_295" data-name="Caminho 295" class="symbols" d="M48.942,25.22v2.923H30.22V25.22Z" transform="translate(-30.22 -25.22)"/>
      </g>
      <g id="Grupo_1256" data-name="Grupo 1256" transform="translate(0 14.22)">
        <path id="Caminho_296" data-name="Caminho 296" class="symbols" d="M48.942,27.02v2.923H30.22V27.02Z" transform="translate(-30.22 -27.02)"/>
      </g>
    </g>
    <g id="Grupo_1263" data-name="Grupo 1263" transform="translate(227.632 2.646)">
      <g id="Grupo_1259" data-name="Grupo 1259" transform="translate(2.014 1.975)">
        <g id="Grupo_1258" data-name="Grupo 1258">
          <path id="Caminho_297" data-name="Caminho 297" class="symbols" d="M63,49.491a16.592,16.592,0,1,1,11.731,4.858A16.592,16.592,0,0,1,63,49.491Zm1.9-21.527A13.9,13.9,0,1,0,84.525,28a13.923,13.923,0,0,0-19.631-.04Z" transform="translate(-58.14 -21.17)"/>
        </g>
      </g>
      <g id="Grupo_1262" data-name="Grupo 1262">
        <g id="Grupo_1260" data-name="Grupo 1260" transform="translate(3.278)">
          <path id="Caminho_298" data-name="Caminho 298" class="symbols" d="M71.376,31.848l-1.738,1.738L58.46,22.408,60.2,20.67Z" transform="translate(-58.46 -20.67)"/>
        </g>
        <g id="Grupo_1261" data-name="Grupo 1261" transform="translate(0 3.278)">
          <path id="Caminho_299" data-name="Caminho 299" class="symbols" d="M70.546,32.678l-1.738,1.738L57.63,23.238,59.368,21.5Z" transform="translate(-57.63 -21.5)"/>
        </g>
      </g>
    </g>
  </g>
  <g id="Grupo_1266" data-name="Grupo 1266" transform="translate(63.949 6.043)">
    <g id="Grupo_1265" data-name="Grupo 1265">
      <path id="Caminho_300" data-name="Caminho 300" class="symbols" d="M32.779,34.709a16.589,16.589,0,1,1,16.59-16.589A16.587,16.587,0,0,1,32.779,34.709Zm0-30.454A13.864,13.864,0,1,0,46.644,18.119,13.882,13.882,0,0,0,32.779,4.255Z" transform="translate(-16.19 -1.53)"/>
    </g>
  </g>
  <g id="Grupo_1282" data-name="Grupo 1282" transform="translate(418.845 3.515)">
    <g id="Grupo_1271" data-name="Grupo 1271">
      <g id="Componente_6_2_12_" transform="translate(0 27.215)">
        <g id="Caminho_27_12_" transform="translate(0 0)">
          <g id="Grupo_1267" data-name="Grupo 1267">
            <path id="Caminho_301" data-name="Caminho 301" class="symbols" d="M110.871,12.42a.316.316,0,0,1-.632,0A6.018,6.018,0,0,0,108.3,8.035a6.545,6.545,0,0,1-2.093-4.779.316.316,0,1,1,.632,0,6.017,6.017,0,0,0,1.935,4.384A6.474,6.474,0,0,1,110.871,12.42Z" transform="translate(-105.539 -2.308)"/>
            <path id="Caminho_302" data-name="Caminho 302" class="symbols" d="M107.659,3.056a.953.953,0,0,1,.277.671,5.489,5.489,0,0,0,1.777,3.989,7.1,7.1,0,0,1,2.251,5.214.948.948,0,1,1-1.9,0,5.489,5.489,0,0,0-1.777-3.989,7.171,7.171,0,0,1-2.251-5.214.961.961,0,0,1,.948-.948A.814.814,0,0,1,107.659,3.056Z" transform="translate(-106.04 -2.78)"/>
          </g>
        </g>
      </g>
      <g id="Componente_6_2_11_" transform="translate(0 18.209)">
        <g id="Caminho_27_11_" transform="translate(0 0)">
          <g id="Grupo_1268" data-name="Grupo 1268">
            <path id="Caminho_303" data-name="Caminho 303" class="symbols" d="M110.871.966a6.474,6.474,0,0,1-2.093,4.779,6.017,6.017,0,0,0-1.935,4.384.316.316,0,1,1-.632,0A6.474,6.474,0,0,1,108.3,5.35,6.018,6.018,0,0,0,110.239.966a.316.316,0,0,1,.632,0Z" transform="translate(-105.539 -0.058)"/>
            <path id="Caminho_304" data-name="Caminho 304" class="symbols" d="M111.688.776a.953.953,0,0,1,.277.671,7.171,7.171,0,0,1-2.251,5.214,5.419,5.419,0,0,0-1.777,3.989.948.948,0,1,1-1.9,0,7.171,7.171,0,0,1,2.251-5.214,5.419,5.419,0,0,0,1.777-3.989A.961.961,0,0,1,111.017.5.814.814,0,0,1,111.688.776Z" transform="translate(-106.04 -0.5)"/>
          </g>
        </g>
      </g>
      <g id="Componente_6_2_10_" transform="translate(0 9.006)">
        <g id="Caminho_27_10_">
          <g id="Grupo_1269" data-name="Grupo 1269">
            <path id="Caminho_305" data-name="Caminho 305" class="symbols" d="M110.871,7.81a.316.316,0,0,1-.632,0A6.018,6.018,0,0,0,108.3,3.425a6.545,6.545,0,0,1-2.093-4.779.34.34,0,0,1,.316-.316.34.34,0,0,1,.316.316,6.017,6.017,0,0,0,1.935,4.384A6.474,6.474,0,0,1,110.871,7.81Z" transform="translate(-105.539 2.302)"/>
            <path id="Caminho_306" data-name="Caminho 306" class="symbols" d="M107.659-1.554a.953.953,0,0,1,.277.671,5.489,5.489,0,0,0,1.777,3.989,7.1,7.1,0,0,1,2.251,5.214.961.961,0,0,1-.948.948.989.989,0,0,1-.948-.948,5.489,5.489,0,0,0-1.777-3.989A7.1,7.1,0,0,1,106.04-.882a.961.961,0,0,1,.948-.948A.953.953,0,0,1,107.659-1.554Z" transform="translate(-106.04 1.83)"/>
          </g>
        </g>
      </g>
      <g id="Componente_6_2_9_" transform="translate(0)">
        <g id="Caminho_27_9_">
          <g id="Grupo_1270" data-name="Grupo 1270">
            <path id="Caminho_307" data-name="Caminho 307" class="symbols" d="M110.871-3.634a6.474,6.474,0,0,1-2.093,4.779,6.017,6.017,0,0,0-1.935,4.384.316.316,0,1,1-.632,0A6.474,6.474,0,0,1,108.3.75a6.018,6.018,0,0,0,1.935-4.384.34.34,0,0,1,.316-.316A.312.312,0,0,1,110.871-3.634Z" transform="translate(-105.539 4.582)"/>
            <path id="Caminho_308" data-name="Caminho 308" class="symbols" d="M111.688-3.834a.953.953,0,0,1,.277.671,7.171,7.171,0,0,1-2.251,5.214,5.489,5.489,0,0,0-1.777,3.989.948.948,0,1,1-1.9,0A7.1,7.1,0,0,1,108.291.827a5.419,5.419,0,0,0,1.777-3.989.961.961,0,0,1,.948-.948A.953.953,0,0,1,111.688-3.834Z" transform="translate(-106.04 4.11)"/>
          </g>
        </g>
      </g>
    </g>
    <g id="Grupo_1276" data-name="Grupo 1276" transform="translate(8.058)">
      <g id="Componente_6_2_8_" transform="translate(0 27.215)">
        <g id="Caminho_27_8_" transform="translate(0 0)">
          <g id="Grupo_1272" data-name="Grupo 1272">
            <path id="Caminho_309" data-name="Caminho 309" class="symbols" d="M112.9,12.42a.316.316,0,1,1-.632,0,6.017,6.017,0,0,0-1.935-4.384,6.545,6.545,0,0,1-2.093-4.779.316.316,0,0,1,.632,0,6.018,6.018,0,0,0,1.935,4.384A6.473,6.473,0,0,1,112.9,12.42Z" transform="translate(-107.608 -2.308)"/>
            <path id="Caminho_310" data-name="Caminho 310" class="symbols" d="M109.7,3.056a.953.953,0,0,1,.276.671,5.489,5.489,0,0,0,1.777,3.989A7.1,7.1,0,0,1,114,12.931a.961.961,0,0,1-.948.948.936.936,0,0,1-.948-.948,5.489,5.489,0,0,0-1.777-3.989,7.1,7.1,0,0,1-2.251-5.214.961.961,0,0,1,.948-.948A.814.814,0,0,1,109.7,3.056Z" transform="translate(-108.08 -2.78)"/>
          </g>
        </g>
      </g>
      <g id="Componente_6_2_7_" transform="translate(0 18.209)">
        <g id="Caminho_27_7_" transform="translate(0 0)">
          <g id="Grupo_1273" data-name="Grupo 1273">
            <path id="Caminho_311" data-name="Caminho 311" class="symbols" d="M112.9.966a6.473,6.473,0,0,1-2.093,4.779,6.018,6.018,0,0,0-1.935,4.384.316.316,0,0,1-.632,0,6.474,6.474,0,0,1,2.093-4.779A6.017,6.017,0,0,0,112.269.966a.34.34,0,0,1,.316-.316A.312.312,0,0,1,112.9.966Z" transform="translate(-107.608 -0.058)"/>
            <path id="Caminho_312" data-name="Caminho 312" class="symbols" d="M113.728.776a.953.953,0,0,1,.276.671h0a7.171,7.171,0,0,1-2.251,5.214,5.419,5.419,0,0,0-1.777,3.989.961.961,0,0,1-.948.948.989.989,0,0,1-.948-.948,7.171,7.171,0,0,1,2.251-5.214,5.419,5.419,0,0,0,1.777-3.989A.961.961,0,0,1,113.057.5.814.814,0,0,1,113.728.776Z" transform="translate(-108.08 -0.5)"/>
          </g>
        </g>
      </g>
      <g id="Componente_6_2_6_" transform="translate(0.039 8.966)">
        <g id="Caminho_27_6_">
          <g id="Grupo_1274" data-name="Grupo 1274">
            <path id="Caminho_313" data-name="Caminho 313" class="symbols" d="M112.9,7.81a.316.316,0,1,1-.632,0,6.017,6.017,0,0,0-1.935-4.384,6.545,6.545,0,0,1-2.093-4.779.34.34,0,0,1,.316-.316.34.34,0,0,1,.316.316,6.018,6.018,0,0,0,1.935,4.384A6.473,6.473,0,0,1,112.9,7.81Z" transform="translate(-107.648 2.341)"/>
            <path id="Caminho_314" data-name="Caminho 314" class="symbols" d="M109.67-1.524a.953.953,0,0,1,.276.671,5.489,5.489,0,0,0,1.777,3.989,7.171,7.171,0,0,1,2.251,5.214h0a.919.919,0,0,1-.908.908.936.936,0,0,1-.948-.948,5.489,5.489,0,0,0-1.777-3.989A7.1,7.1,0,0,1,108.09-.892a.961.961,0,0,1,.948-.948A1.2,1.2,0,0,1,109.67-1.524Z" transform="translate(-108.09 1.84)"/>
          </g>
        </g>
      </g>
      <g id="Componente_6_2_5_" transform="translate(0)">
        <g id="Caminho_27_5_">
          <g id="Grupo_1275" data-name="Grupo 1275">
            <path id="Caminho_315" data-name="Caminho 315" class="symbols" d="M112.9-3.634a6.473,6.473,0,0,1-2.093,4.779,6.018,6.018,0,0,0-1.935,4.384.316.316,0,0,1-.632,0A6.474,6.474,0,0,1,110.333.75a6.017,6.017,0,0,0,1.935-4.384.34.34,0,0,1,.316-.316A.291.291,0,0,1,112.9-3.634Z" transform="translate(-107.608 4.582)"/>
            <path id="Caminho_316" data-name="Caminho 316" class="symbols" d="M113.728-3.834a.953.953,0,0,1,.276.671,7.171,7.171,0,0,1-2.251,5.214,5.419,5.419,0,0,0-1.777,3.989.948.948,0,1,1-1.9,0A7.171,7.171,0,0,1,110.331.827a5.489,5.489,0,0,0,1.777-3.989.961.961,0,0,1,.948-.948A.953.953,0,0,1,113.728-3.834Z" transform="translate(-108.08 4.11)"/>
          </g>
        </g>
      </g>
    </g>
    <g id="Grupo_1281" data-name="Grupo 1281" transform="translate(16.116)">
      <g id="Componente_6_2_4_" transform="translate(0 27.215)">
        <g id="Caminho_27_4_" transform="translate(0 0)">
          <g id="Grupo_1277" data-name="Grupo 1277">
            <path id="Caminho_317" data-name="Caminho 317" class="symbols" d="M114.941,12.42a.316.316,0,0,1-.632,0,6.017,6.017,0,0,0-1.935-4.384,6.545,6.545,0,0,1-2.093-4.779.316.316,0,0,1,.632,0,6.018,6.018,0,0,0,1.935,4.384A6.473,6.473,0,0,1,114.941,12.42Z" transform="translate(-109.648 -2.308)"/>
            <path id="Caminho_318" data-name="Caminho 318" class="symbols" d="M111.739,3.056a.953.953,0,0,1,.276.671,5.489,5.489,0,0,0,1.777,3.989,7.1,7.1,0,0,1,2.251,5.214.948.948,0,1,1-1.9,0,5.489,5.489,0,0,0-1.777-3.989,7.1,7.1,0,0,1-2.251-5.214.961.961,0,0,1,.948-.948A.866.866,0,0,1,111.739,3.056Z" transform="translate(-110.12 -2.78)"/>
          </g>
        </g>
      </g>
      <g id="Componente_6_2_3_" transform="translate(0 18.209)">
        <g id="Caminho_27_3_" transform="translate(0 0)">
          <g id="Grupo_1278" data-name="Grupo 1278">
            <path id="Caminho_319" data-name="Caminho 319" class="symbols" d="M114.941.966a6.473,6.473,0,0,1-2.093,4.779,6.018,6.018,0,0,0-1.935,4.384.316.316,0,0,1-.632,0,6.474,6.474,0,0,1,2.093-4.779A6.017,6.017,0,0,0,114.309.966a.316.316,0,0,1,.632,0Z" transform="translate(-109.648 -0.058)"/>
            <path id="Caminho_320" data-name="Caminho 320" class="symbols" d="M115.768.776a.953.953,0,0,1,.277.671,7.171,7.171,0,0,1-2.251,5.214,5.419,5.419,0,0,0-1.777,3.989.961.961,0,0,1-.948.948.989.989,0,0,1-.948-.948,7.171,7.171,0,0,1,2.251-5.214,5.419,5.419,0,0,0,1.777-3.989A.961.961,0,0,1,115.1.5.814.814,0,0,1,115.768.776Z" transform="translate(-110.12 -0.5)"/>
          </g>
        </g>
      </g>
      <g id="Componente_6_2_2_" transform="translate(0 9.006)">
        <g id="Caminho_27_2_">
          <g id="Grupo_1279" data-name="Grupo 1279">
            <path id="Caminho_321" data-name="Caminho 321" class="symbols" d="M114.941,7.81a.316.316,0,0,1-.632,0,6.017,6.017,0,0,0-1.935-4.384,6.545,6.545,0,0,1-2.093-4.779.34.34,0,0,1,.316-.316.34.34,0,0,1,.316.316,6.018,6.018,0,0,0,1.935,4.384A6.473,6.473,0,0,1,114.941,7.81Z" transform="translate(-109.648 2.302)"/>
            <path id="Caminho_322" data-name="Caminho 322" class="symbols" d="M111.739-1.554a.953.953,0,0,1,.276.671,5.489,5.489,0,0,0,1.777,3.989,7.171,7.171,0,0,1,2.251,5.214.961.961,0,0,1-.948.948.989.989,0,0,1-.948-.948,5.489,5.489,0,0,0-1.777-3.989A7.1,7.1,0,0,1,110.12-.882a.961.961,0,0,1,.948-.948A1.12,1.12,0,0,1,111.739-1.554Z" transform="translate(-110.12 1.83)"/>
          </g>
        </g>
      </g>
      <g id="Componente_6_2_1_" transform="translate(0)">
        <g id="Caminho_27_1_">
          <g id="Grupo_1280" data-name="Grupo 1280">
            <path id="Caminho_323" data-name="Caminho 323" class="symbols" d="M114.941-3.634a6.473,6.473,0,0,1-2.093,4.779,6.018,6.018,0,0,0-1.935,4.384.316.316,0,0,1-.632,0A6.474,6.474,0,0,1,112.373.75a6.017,6.017,0,0,0,1.935-4.384.34.34,0,0,1,.316-.316A.312.312,0,0,1,114.941-3.634Z" transform="translate(-109.648 4.582)"/>
            <path id="Caminho_324" data-name="Caminho 324" class="symbols" d="M115.768-3.834a.953.953,0,0,1,.277.671,7.1,7.1,0,0,1-2.251,5.214,5.489,5.489,0,0,0-1.777,3.989.948.948,0,1,1-1.9,0A7.171,7.171,0,0,1,112.371.827a5.419,5.419,0,0,0,1.777-3.989.989.989,0,0,1,.948-.948A.953.953,0,0,1,115.768-3.834Z" transform="translate(-110.12 4.11)"/>
          </g>
        </g>
      </g>
    </g>
  </g>
  <g id="Grupo_1289" data-name="Grupo 1289">
    <g id="Grupo_1285" data-name="Grupo 1285" transform="translate(0 21.408)">
      <g id="Grupo_1283" data-name="Grupo 1283" transform="translate(29.466)">
        <path id="Caminho_325" data-name="Caminho 325" class="symbols" d="M7.46,7.908V5.42H23.3V7.908Z" transform="translate(-7.46 -5.42)"/>
      </g>
      <g id="Grupo_1284" data-name="Grupo 1284">
        <path id="Caminho_326" data-name="Caminho 326" class="symbols" d="M0,7.908V5.42H15.839V7.908Z" transform="translate(0 -5.42)"/>
      </g>
    </g>
    <g id="Grupo_1288" data-name="Grupo 1288" transform="translate(21.408)">
      <g id="Grupo_1286" data-name="Grupo 1286" transform="translate(0 29.466)">
        <path id="Caminho_327" data-name="Caminho 327" class="symbols" d="M5.42,7.46H7.908V23.3H5.42Z" transform="translate(-5.42 -7.46)"/>
      </g>
      <g id="Grupo_1287" data-name="Grupo 1287">
        <path id="Caminho_328" data-name="Caminho 328" class="symbols" d="M5.42,0H7.908V15.839H5.42Z" transform="translate(-5.42)"/>
      </g>
    </g>
  </g>
  <g id="Grupo_1296" data-name="Grupo 1296" transform="translate(115.811)">
    <g id="Grupo_1292" data-name="Grupo 1292" transform="translate(0 21.408)">
      <g id="Grupo_1290" data-name="Grupo 1290" transform="translate(29.427)">
        <path id="Caminho_329" data-name="Caminho 329" class="symbols" d="M36.77,7.908V5.42H52.609V7.908Z" transform="translate(-36.77 -5.42)"/>
      </g>
      <g id="Grupo_1291" data-name="Grupo 1291">
        <path id="Caminho_330" data-name="Caminho 330" class="symbols" d="M29.32,7.908V5.42H45.159V7.908Z" transform="translate(-29.32 -5.42)"/>
      </g>
    </g>
    <g id="Grupo_1295" data-name="Grupo 1295" transform="translate(21.408)">
      <g id="Grupo_1293" data-name="Grupo 1293" transform="translate(0 29.466)">
        <path id="Caminho_331" data-name="Caminho 331" class="symbols" d="M34.74,7.46h2.488V23.3H34.74Z" transform="translate(-34.74 -7.46)"/>
      </g>
      <g id="Grupo_1294" data-name="Grupo 1294">
        <path id="Caminho_332" data-name="Caminho 332" class="symbols" d="M34.74,0h2.488V15.839H34.74Z" transform="translate(-34.74)"/>
      </g>
    </g>
  </g>
  <g id="Grupo_1303" data-name="Grupo 1303" transform="translate(231.582)">
    <g id="Grupo_1299" data-name="Grupo 1299" transform="translate(0 21.408)">
      <g id="Grupo_1297" data-name="Grupo 1297" transform="translate(29.466)">
        <path id="Caminho_333" data-name="Caminho 333" class="symbols" d="M66.09,7.908V5.42H81.929V7.908Z" transform="translate(-66.09 -5.42)"/>
      </g>
      <g id="Grupo_1298" data-name="Grupo 1298">
        <path id="Caminho_334" data-name="Caminho 334" class="symbols" d="M58.63,7.908V5.42H74.469V7.908Z" transform="translate(-58.63 -5.42)"/>
      </g>
    </g>
    <g id="Grupo_1302" data-name="Grupo 1302" transform="translate(21.408)">
      <g id="Grupo_1300" data-name="Grupo 1300" transform="translate(0 29.466)">
        <path id="Caminho_335" data-name="Caminho 335" class="symbols" d="M64.05,7.46h2.488V23.3H64.05Z" transform="translate(-64.05 -7.46)"/>
      </g>
      <g id="Grupo_1301" data-name="Grupo 1301">
        <path id="Caminho_336" data-name="Caminho 336" class="symbols" d="M64.05,0h2.488V15.839H64.05Z" transform="translate(-64.05)"/>
      </g>
    </g>
  </g>
  <g id="Grupo_1310" data-name="Grupo 1310" transform="translate(347.392)">
    <g id="Grupo_1306" data-name="Grupo 1306" transform="translate(0 21.408)">
      <g id="Grupo_1304" data-name="Grupo 1304" transform="translate(29.466)">
        <path id="Caminho_337" data-name="Caminho 337" class="symbols" d="M95.41,7.908V5.42h15.839V7.908Z" transform="translate(-95.41 -5.42)"/>
      </g>
      <g id="Grupo_1305" data-name="Grupo 1305">
        <path id="Caminho_338" data-name="Caminho 338" class="symbols" d="M87.95,7.908V5.42h15.839V7.908Z" transform="translate(-87.95 -5.42)"/>
      </g>
    </g>
    <g id="Grupo_1309" data-name="Grupo 1309" transform="translate(21.408)">
      <g id="Grupo_1307" data-name="Grupo 1307" transform="translate(0 29.466)">
        <path id="Caminho_339" data-name="Caminho 339" class="symbols" d="M93.37,7.46h2.488V23.3H93.37Z" transform="translate(-93.37 -7.46)"/>
      </g>
      <g id="Grupo_1308" data-name="Grupo 1308">
        <path id="Caminho_340" data-name="Caminho 340" class="symbols" d="M93.37,0h2.488V15.839H93.37Z" transform="translate(-93.37)"/>
      </g>
    </g>
  </g>
  <g id="Grupo_1314" data-name="Grupo 1314" transform="translate(302.798 13.509)">
    <g id="Grupo_1311" data-name="Grupo 1311">
      <path id="Caminho_341" data-name="Caminho 341" class="symbols" d="M95.382,3.42V6.343H76.66V3.42Z" transform="translate(-76.66 -3.42)"/>
    </g>
    <g id="Grupo_1312" data-name="Grupo 1312" transform="translate(0 7.11)">
      <path id="Caminho_342" data-name="Caminho 342" class="symbols" d="M95.382,5.22V8.143H76.66V5.22Z" transform="translate(-76.66 -5.22)"/>
    </g>
    <g id="Grupo_1313" data-name="Grupo 1313" transform="translate(0 14.22)">
      <path id="Caminho_343" data-name="Caminho 343" class="symbols" d="M95.382,7.02V9.943H76.66V7.02Z" transform="translate(-76.66 -7.02)"/>
    </g>
  </g>
  <g id="Grupo_1320" data-name="Grupo 1320" transform="translate(178.061 2.646)">
    <g id="Grupo_1316" data-name="Grupo 1316" transform="translate(0 1.975)">
      <g id="Grupo_1315" data-name="Grupo 1315">
        <path id="Caminho_344" data-name="Caminho 344" class="symbols" d="M61.67,34.349A16.589,16.589,0,1,1,73.4,29.491,16.572,16.572,0,0,1,61.67,34.349Zm0-30.454a13.688,13.688,0,0,0-9.8,4.068A13.867,13.867,0,1,0,71.5,7.924,14.141,14.141,0,0,0,61.67,3.9Z" transform="translate(-45.08 -1.17)"/>
      </g>
    </g>
    <g id="Grupo_1319" data-name="Grupo 1319" transform="translate(18.959)">
      <g id="Grupo_1317" data-name="Grupo 1317">
        <path id="Caminho_345" data-name="Caminho 345" class="symbols" d="M61.1.67l1.738,1.738L51.657,13.586,49.88,11.848Z" transform="translate(-49.88 -0.67)"/>
      </g>
      <g id="Grupo_1318" data-name="Grupo 1318" transform="translate(3.318 3.278)">
        <path id="Caminho_346" data-name="Caminho 346" class="symbols" d="M61.9,1.5l1.738,1.738L52.458,14.416,50.72,12.678Z" transform="translate(-50.72 -1.5)"/>
      </g>
    </g>
  </g>
</svg>
