<svg id="Grupo_1621" data-name="Grupo 1621" xmlns="https://www.w3.org/2000/svg" viewBox="0 0 18 12">
  <g id="Grupo_1047" data-name="Grupo 1047" transform="translate(7.747 0)">
    <g id="Grupo_1046" data-name="Grupo 1046">
      <path id="Caminho_188" data-name="Caminho 188" d="M77.246,10.088a.918.918,0,0,1-.006.13,8.715,8.715,0,0,0-2.783,0,.918.918,0,0,1-.006-.13,1.4,1.4,0,1,1,2.8,0Z" transform="translate(-74.45 -8.69)"/>
    </g>
  </g>
  <g id="Grupo_1049" data-name="Grupo 1049" transform="translate(0.808 1.994)">
    <g id="Grupo_1048" data-name="Grupo 1048">
      <path id="Caminho_189" data-name="Caminho 189" d="M73.779,12.186c-.155-.043-.3-.081-.46-.112s-.323-.062-.485-.087a8.567,8.567,0,0,0-2.435,0c-.162.025-.323.05-.485.087s-.311.068-.46.112a8.366,8.366,0,0,0-6.175,7.467H79.954A8.366,8.366,0,0,0,73.779,12.186Zm-3.56,2.28a5.364,5.364,0,0,0-3.274,2.752.576.576,0,0,1-.534.348.552.552,0,0,1-.224-.043.574.574,0,0,1-.3-.758,6.479,6.479,0,0,1,4.02-3.411.574.574,0,0,1,.714.4A.587.587,0,0,1,70.219,14.466Z" transform="translate(-63.28 -11.9)"/>
    </g>
  </g>
  <g id="Grupo_1051" data-name="Grupo 1051" transform="translate(0 10.356)">
    <g id="Grupo_1050" data-name="Grupo 1050">
      <path id="Caminho_190" data-name="Caminho 190" d="M80.27,25.36a1.852,1.852,0,0,1-1.851,1.851H63.831A1.856,1.856,0,0,1,61.98,25.36Z" transform="translate(-61.98 -25.36)"/>
    </g>
  </g>
</svg>
